# xmcd CD database file generated by Grip 2.98.5
# 
# Track frame offsets:
#       182
#       20002
#       39195
#       54350
#       68945
#       86422
#       100092
#       116425
#       129807
#       147975
# 
# Disc length: 2137 secs
# 
# Revision: 2
# Processed by: cddbd v1.4PL0 Copyright (c) Steve Scherf et al.
# Submitted via: Grip 2.98.5
# 
DISCID=7908570a
DTITLE=Restless Heart - Fast Movin' Train
DYEAR=1990
DGENRE=Country
TTITLE0=Fast Movin' Train
TTITLE1=Dancy's Dream
TTITLE2=Sweet Auburn
TTITLE3=I've Never Been So Sure
TTITLE4=Long Lost Friend
TTITLE5=A Little More Coal On The Fire
TTITLE6=When Somebody Loves You
TTITLE7=Lady Luck
TTITLE8=River Of Stone
TTITLE9=The Truth Hurts
EXTD=
EXTT0=
EXTT1=
EXTT2=
EXTT3=
EXTT4=
EXTT5=
EXTT6=
EXTT7=
EXTT8=
EXTT9=
PLAYORDER=
